<svg xmlns="http://www.w3.org/2000/svg" version="1.1" xmlns:xlink="http://www.w3.org/1999/xlink" xmlns:svgjs="http://svgjs.com/svgjs" width="1440" height="400" preserveAspectRatio="none" viewBox="0 0 1440 400"><g mask="url(&quot;#SvgjsMask2132&quot;)" fill="none"><rect width="1440" height="400" x="0" y="0" fill="url(#SvgjsLinearGradient2133)"></rect><path d="M-56.8 394L-56.8 394" stroke="rgba(28, 92, 127, 0.22)" stroke-width="1.5"></path><path d="M-56.8 394L-81.66 493.81" stroke="rgba(28, 92, 127, 0.22)" stroke-width="1.5"></path><path d="M-56.8 394L48.85 388.2" stroke="rgba(28, 92, 127, 0.22)" stroke-width="1.5"></path><path d="M-56.8 394L64.73 524.53" stroke="rgba(28, 92, 127, 0.22)" stroke-width="1.5"></path><path d="M-81.66 493.81L-81.66 493.81" stroke="rgba(28, 92, 127, 0.22)" stroke-width="1.5"></path><path d="M-81.66 493.81L64.73 524.53" stroke="rgba(28, 92, 127, 0.22)" stroke-width="1.5"></path><path d="M-81.66 493.81L48.85 388.2" stroke="rgba(28, 92, 127, 0.22)" stroke-width="1.5"></path><path d="M-81.66 493.81L188.71 505.76" stroke="rgba(28, 92, 127, 0.22)" stroke-width="1.5"></path><path d="M48.85 388.2L48.85 388.2" stroke="rgba(28, 92, 127, 0.22)" stroke-width="1.5"></path><path d="M48.85 388.2L64.73 524.53" stroke="rgba(28, 92, 127, 0.22)" stroke-width="1.5"></path><path d="M48.85 388.2L188.71 505.76" stroke="rgba(28, 92, 127, 0.22)" stroke-width="1.5"></path><path d="M64.73 524.53L64.73 524.53" stroke="rgba(28, 92, 127, 0.22)" stroke-width="1.5"></path><path d="M64.73 524.53L188.71 505.76" stroke="rgba(28, 92, 127, 0.22)" stroke-width="1.5"></path><path d="M252.01 405.01L252.01 405.01" stroke="rgba(28, 92, 127, 0.22)" stroke-width="1.5"></path><path d="M252.01 405.01L344.61 391.92" stroke="rgba(28, 92, 127, 0.22)" stroke-width="1.5"></path><path d="M252.01 405.01L188.71 505.76" stroke="rgba(28, 92, 127, 0.22)" stroke-width="1.5"></path><path d="M252.01 405.01L383.5 526.59" stroke="rgba(28, 92, 127, 0.22)" stroke-width="1.5"></path><path d="M252.01 405.01L48.85 388.2" stroke="rgba(28, 92, 127, 0.22)" stroke-width="1.5"></path><path d="M188.71 505.76L188.71 505.76" stroke="rgba(28, 92, 127, 0.22)" stroke-width="1.5"></path><path d="M188.71 505.76L344.61 391.92" stroke="rgba(28, 92, 127, 0.22)" stroke-width="1.5"></path><path d="M188.71 505.76L383.5 526.59" stroke="rgba(28, 92, 127, 0.22)" stroke-width="1.5"></path><path d="M188.71 505.76L-56.8 394" stroke="rgba(28, 92, 127, 0.22)" stroke-width="1.5"></path><path d="M344.61 391.92L344.61 391.92" stroke="rgba(28, 92, 127, 0.22)" stroke-width="1.5"></path><path d="M344.61 391.92L383.5 526.59" stroke="rgba(28, 92, 127, 0.22)" stroke-width="1.5"></path><path d="M383.5 526.59L383.5 526.59" stroke="rgba(28, 92, 127, 0.22)" stroke-width="1.5"></path><path d="M383.5 526.59L507.73 541.57" stroke="rgba(28, 92, 127, 0.22)" stroke-width="1.5"></path><path d="M534.11 218.27L534.11 218.27" stroke="rgba(28, 92, 127, 0.22)" stroke-width="1.5"></path><path d="M534.11 218.27L678.4 219.9" stroke="rgba(28, 92, 127, 0.22)" stroke-width="1.5"></path><path d="M534.11 218.27L547.34 401.27" stroke="rgba(28, 92, 127, 0.22)" stroke-width="1.5"></path><path d="M534.11 218.27L710.91 339.28" stroke="rgba(28, 92, 127, 0.22)" stroke-width="1.5"></path><path d="M547.34 401.27L547.34 401.27" stroke="rgba(28, 92, 127, 0.22)" stroke-width="1.5"></path><path d="M547.34 401.27L507.73 541.57" stroke="rgba(28, 92, 127, 0.22)" stroke-width="1.5"></path><path d="M547.34 401.27L639.71 538.14" stroke="rgba(28, 92, 127, 0.22)" stroke-width="1.5"></path><path d="M547.34 401.27L710.91 339.28" stroke="rgba(28, 92, 127, 0.22)" stroke-width="1.5"></path><path d="M507.73 541.57L507.73 541.57" stroke="rgba(28, 92, 127, 0.22)" stroke-width="1.5"></path><path d="M507.73 541.57L639.71 538.14" stroke="rgba(28, 92, 127, 0.22)" stroke-width="1.5"></path><path d="M507.73 541.57L344.61 391.92" stroke="rgba(28, 92, 127, 0.22)" stroke-width="1.5"></path><path d="M678.4 219.9L678.4 219.9" stroke="rgba(28, 92, 127, 0.22)" stroke-width="1.5"></path><path d="M678.4 219.9L710.91 339.28" stroke="rgba(28, 92, 127, 0.22)" stroke-width="1.5"></path><path d="M678.4 219.9L802.97 198.81" stroke="rgba(28, 92, 127, 0.22)" stroke-width="1.5"></path><path d="M678.4 219.9L803.04 93.75" stroke="rgba(28, 92, 127, 0.22)" stroke-width="1.5"></path><path d="M678.4 219.9L822.86 374.59" stroke="rgba(28, 92, 127, 0.22)" stroke-width="1.5"></path><path d="M710.91 339.28L710.91 339.28" stroke="rgba(28, 92, 127, 0.22)" stroke-width="1.5"></path><path d="M710.91 339.28L822.86 374.59" stroke="rgba(28, 92, 127, 0.22)" stroke-width="1.5"></path><path d="M710.91 339.28L802.97 198.81" stroke="rgba(28, 92, 127, 0.22)" stroke-width="1.5"></path><path d="M710.91 339.28L639.71 538.14" stroke="rgba(28, 92, 127, 0.22)" stroke-width="1.5"></path><path d="M639.71 538.14L639.71 538.14" stroke="rgba(28, 92, 127, 0.22)" stroke-width="1.5"></path><path d="M639.71 538.14L861.61 513.33" stroke="rgba(28, 92, 127, 0.22)" stroke-width="1.5"></path><path d="M639.71 538.14L822.86 374.59" stroke="rgba(28, 92, 127, 0.22)" stroke-width="1.5"></path><path d="M639.71 538.14L383.5 526.59" stroke="rgba(28, 92, 127, 0.22)" stroke-width="1.5"></path><path d="M803.04 93.75L803.04 93.75" stroke="rgba(28, 92, 127, 0.22)" stroke-width="1.5"></path><path d="M803.04 93.75L802.97 198.81" stroke="rgba(28, 92, 127, 0.22)" stroke-width="1.5"></path><path d="M803.04 93.75L944.1 -39.73" stroke="rgba(28, 92, 127, 0.22)" stroke-width="1.5"></path><path d="M803.04 93.75L948.36 261.25" stroke="rgba(28, 92, 127, 0.22)" stroke-width="1.5"></path><path d="M802.97 198.81L802.97 198.81" stroke="rgba(28, 92, 127, 0.22)" stroke-width="1.5"></path><path d="M802.97 198.81L948.36 261.25" stroke="rgba(28, 92, 127, 0.22)" stroke-width="1.5"></path><path d="M802.97 198.81L822.86 374.59" stroke="rgba(28, 92, 127, 0.22)" stroke-width="1.5"></path><path d="M802.97 198.81L534.11 218.27" stroke="rgba(28, 92, 127, 0.22)" stroke-width="1.5"></path><path d="M822.86 374.59L822.86 374.59" stroke="rgba(28, 92, 127, 0.22)" stroke-width="1.5"></path><path d="M822.86 374.59L861.61 513.33" stroke="rgba(28, 92, 127, 0.22)" stroke-width="1.5"></path><path d="M822.86 374.59L948.36 261.25" stroke="rgba(28, 92, 127, 0.22)" stroke-width="1.5"></path><path d="M822.86 374.59L955.32 540.4" stroke="rgba(28, 92, 127, 0.22)" stroke-width="1.5"></path><path d="M861.61 513.33L861.61 513.33" stroke="rgba(28, 92, 127, 0.22)" stroke-width="1.5"></path><path d="M861.61 513.33L955.32 540.4" stroke="rgba(28, 92, 127, 0.22)" stroke-width="1.5"></path><path d="M861.61 513.33L710.91 339.28" stroke="rgba(28, 92, 127, 0.22)" stroke-width="1.5"></path><path d="M861.61 513.33L948.36 261.25" stroke="rgba(28, 92, 127, 0.22)" stroke-width="1.5"></path><path d="M861.61 513.33L1159.2 515.3" stroke="rgba(28, 92, 127, 0.22)" stroke-width="1.5"></path><path d="M944.1 -39.73L944.1 -39.73" stroke="rgba(28, 92, 127, 0.22)" stroke-width="1.5"></path><path d="M944.1 -39.73L1096.83 -98.89" stroke="rgba(28, 92, 127, 0.22)" stroke-width="1.5"></path><path d="M944.1 -39.73L1117.54 86.33" stroke="rgba(28, 92, 127, 0.22)" stroke-width="1.5"></path><path d="M944.1 -39.73L802.97 198.81" stroke="rgba(28, 92, 127, 0.22)" stroke-width="1.5"></path><path d="M948.36 261.25L948.36 261.25" stroke="rgba(28, 92, 127, 0.22)" stroke-width="1.5"></path><path d="M955.32 540.4L955.32 540.4" stroke="rgba(28, 92, 127, 0.22)" stroke-width="1.5"></path><path d="M955.32 540.4L1159.2 515.3" stroke="rgba(28, 92, 127, 0.22)" stroke-width="1.5"></path><path d="M955.32 540.4L1149.59 400.43" stroke="rgba(28, 92, 127, 0.22)" stroke-width="1.5"></path><path d="M955.32 540.4L948.36 261.25" stroke="rgba(28, 92, 127, 0.22)" stroke-width="1.5"></path><path d="M955.32 540.4L639.71 538.14" stroke="rgba(28, 92, 127, 0.22)" stroke-width="1.5"></path><path d="M1096.83 -98.89L1096.83 -98.89" stroke="rgba(28, 92, 127, 0.22)" stroke-width="1.5"></path><path d="M1096.83 -98.89L1117.54 86.33" stroke="rgba(28, 92, 127, 0.22)" stroke-width="1.5"></path><path d="M1117.54 86.33L1117.54 86.33" stroke="rgba(28, 92, 127, 0.22)" stroke-width="1.5"></path><path d="M1117.54 86.33L1133.75 200.87" stroke="rgba(28, 92, 127, 0.22)" stroke-width="1.5"></path><path d="M1117.54 86.33L1256.54 95.27" stroke="rgba(28, 92, 127, 0.22)" stroke-width="1.5"></path><path d="M1133.75 200.87L1133.75 200.87" stroke="rgba(28, 92, 127, 0.22)" stroke-width="1.5"></path><path d="M1133.75 200.87L1240.96 231.81" stroke="rgba(28, 92, 127, 0.22)" stroke-width="1.5"></path><path d="M1133.75 200.87L1256.54 95.27" stroke="rgba(28, 92, 127, 0.22)" stroke-width="1.5"></path><path d="M1133.75 200.87L948.36 261.25" stroke="rgba(28, 92, 127, 0.22)" stroke-width="1.5"></path><path d="M1133.75 200.87L1149.59 400.43" stroke="rgba(28, 92, 127, 0.22)" stroke-width="1.5"></path><path d="M1149.59 400.43L1149.59 400.43" stroke="rgba(28, 92, 127, 0.22)" stroke-width="1.5"></path><path d="M1149.59 400.43L1159.2 515.3" stroke="rgba(28, 92, 127, 0.22)" stroke-width="1.5"></path><path d="M1149.59 400.43L1307.27 365.79" stroke="rgba(28, 92, 127, 0.22)" stroke-width="1.5"></path><path d="M1149.59 400.43L1240.96 231.81" stroke="rgba(28, 92, 127, 0.22)" stroke-width="1.5"></path><path d="M1159.2 515.3L1159.2 515.3" stroke="rgba(28, 92, 127, 0.22)" stroke-width="1.5"></path><path d="M1159.2 515.3L1283.65 549.39" stroke="rgba(28, 92, 127, 0.22)" stroke-width="1.5"></path><path d="M1282.52 -44.1L1282.52 -44.1" stroke="rgba(28, 92, 127, 0.22)" stroke-width="1.5"></path><path d="M1282.52 -44.1L1391.88 -77.68" stroke="rgba(28, 92, 127, 0.22)" stroke-width="1.5"></path><path d="M1282.52 -44.1L1256.54 95.27" stroke="rgba(28, 92, 127, 0.22)" stroke-width="1.5"></path><path d="M1282.52 -44.1L1096.83 -98.89" stroke="rgba(28, 92, 127, 0.22)" stroke-width="1.5"></path><path d="M1256.54 95.27L1256.54 95.27" stroke="rgba(28, 92, 127, 0.22)" stroke-width="1.5"></path><path d="M1256.54 95.27L1240.96 231.81" stroke="rgba(28, 92, 127, 0.22)" stroke-width="1.5"></path><path d="M1256.54 95.27L1453.67 67.97" stroke="rgba(28, 92, 127, 0.22)" stroke-width="1.5"></path><path d="M1240.96 231.81L1240.96 231.81" stroke="rgba(28, 92, 127, 0.22)" stroke-width="1.5"></path><path d="M1240.96 231.81L1307.27 365.79" stroke="rgba(28, 92, 127, 0.22)" stroke-width="1.5"></path><path d="M1240.96 231.81L1390.01 350.6" stroke="rgba(28, 92, 127, 0.22)" stroke-width="1.5"></path><path d="M1240.96 231.81L1117.54 86.33" stroke="rgba(28, 92, 127, 0.22)" stroke-width="1.5"></path><path d="M1307.27 365.79L1307.27 365.79" stroke="rgba(28, 92, 127, 0.22)" stroke-width="1.5"></path><path d="M1307.27 365.79L1390.01 350.6" stroke="rgba(28, 92, 127, 0.22)" stroke-width="1.5"></path><path d="M1283.65 549.39L1283.65 549.39" stroke="rgba(28, 92, 127, 0.22)" stroke-width="1.5"></path><path d="M1283.65 549.39L1431.97 527.39" stroke="rgba(28, 92, 127, 0.22)" stroke-width="1.5"></path><path d="M1283.65 549.39L1307.27 365.79" stroke="rgba(28, 92, 127, 0.22)" stroke-width="1.5"></path><path d="M1283.65 549.39L1149.59 400.43" stroke="rgba(28, 92, 127, 0.22)" stroke-width="1.5"></path><path d="M1283.65 549.39L1390.01 350.6" stroke="rgba(28, 92, 127, 0.22)" stroke-width="1.5"></path><path d="M1391.88 -77.68L1391.88 -77.68" stroke="rgba(28, 92, 127, 0.22)" stroke-width="1.5"></path><path d="M1453.67 67.97L1453.67 67.97" stroke="rgba(28, 92, 127, 0.22)" stroke-width="1.5"></path><path d="M1453.67 67.97L1558.13 60.61" stroke="rgba(28, 92, 127, 0.22)" stroke-width="1.5"></path><path d="M1453.67 67.97L1547.73 189.59" stroke="rgba(28, 92, 127, 0.22)" stroke-width="1.5"></path><path d="M1453.67 67.97L1391.88 -77.68" stroke="rgba(28, 92, 127, 0.22)" stroke-width="1.5"></path><path d="M1453.67 67.97L1432.65 249.17" stroke="rgba(28, 92, 127, 0.22)" stroke-width="1.5"></path><path d="M1453.67 67.97L1282.52 -44.1" stroke="rgba(28, 92, 127, 0.22)" stroke-width="1.5"></path><path d="M1432.65 249.17L1432.65 249.17" stroke="rgba(28, 92, 127, 0.22)" stroke-width="1.5"></path><path d="M1432.65 249.17L1390.01 350.6" stroke="rgba(28, 92, 127, 0.22)" stroke-width="1.5"></path><path d="M1432.65 249.17L1547.73 189.59" stroke="rgba(28, 92, 127, 0.22)" stroke-width="1.5"></path><path d="M1432.65 249.17L1307.27 365.79" stroke="rgba(28, 92, 127, 0.22)" stroke-width="1.5"></path><path d="M1432.65 249.17L1240.96 231.81" stroke="rgba(28, 92, 127, 0.22)" stroke-width="1.5"></path><path d="M1390.01 350.6L1390.01 350.6" stroke="rgba(28, 92, 127, 0.22)" stroke-width="1.5"></path><path d="M1390.01 350.6L1431.97 527.39" stroke="rgba(28, 92, 127, 0.22)" stroke-width="1.5"></path><path d="M1431.97 527.39L1431.97 527.39" stroke="rgba(28, 92, 127, 0.22)" stroke-width="1.5"></path><path d="M1431.97 527.39L1307.27 365.79" stroke="rgba(28, 92, 127, 0.22)" stroke-width="1.5"></path><path d="M1431.97 527.39L1599.49 406.44" stroke="rgba(28, 92, 127, 0.22)" stroke-width="1.5"></path><path d="M1431.97 527.39L1159.2 515.3" stroke="rgba(28, 92, 127, 0.22)" stroke-width="1.5"></path><path d="M1431.97 527.39L1432.65 249.17" stroke="rgba(28, 92, 127, 0.22)" stroke-width="1.5"></path><path d="M1572.06 -104.03L1572.06 -104.03" stroke="rgba(28, 92, 127, 0.22)" stroke-width="1.5"></path><path d="M1572.06 -104.03L1558.13 60.61" stroke="rgba(28, 92, 127, 0.22)" stroke-width="1.5"></path><path d="M1572.06 -104.03L1391.88 -77.68" stroke="rgba(28, 92, 127, 0.22)" stroke-width="1.5"></path><path d="M1572.06 -104.03L1453.67 67.97" stroke="rgba(28, 92, 127, 0.22)" stroke-width="1.5"></path><path d="M1572.06 -104.03L1547.73 189.59" stroke="rgba(28, 92, 127, 0.22)" stroke-width="1.5"></path><path d="M1558.13 60.61L1558.13 60.61" stroke="rgba(28, 92, 127, 0.22)" stroke-width="1.5"></path><path d="M1558.13 60.61L1547.73 189.59" stroke="rgba(28, 92, 127, 0.22)" stroke-width="1.5"></path><path d="M1558.13 60.61L1391.88 -77.68" stroke="rgba(28, 92, 127, 0.22)" stroke-width="1.5"></path><path d="M1558.13 60.61L1432.65 249.17" stroke="rgba(28, 92, 127, 0.22)" stroke-width="1.5"></path><path d="M1558.13 60.61L1282.52 -44.1" stroke="rgba(28, 92, 127, 0.22)" stroke-width="1.5"></path><path d="M1547.73 189.59L1547.73 189.59" stroke="rgba(28, 92, 127, 0.22)" stroke-width="1.5"></path><path d="M1599.49 406.44L1599.49 406.44" stroke="rgba(28, 92, 127, 0.22)" stroke-width="1.5"></path><path d="M1599.49 406.44L1390.01 350.6" stroke="rgba(28, 92, 127, 0.22)" stroke-width="1.5"></path><path d="M1599.49 406.44L1547.73 189.59" stroke="rgba(28, 92, 127, 0.22)" stroke-width="1.5"></path><circle r="5" cx="-56.8" cy="394" fill="rgba(28, 92, 127, 0.22)"></circle><circle r="5" cx="-81.66" cy="493.81" fill="rgba(28, 92, 127, 0.22)"></circle><circle r="5" cx="48.85" cy="388.2" fill="rgba(28, 92, 127, 0.22)"></circle><circle r="5" cx="64.73" cy="524.53" fill="rgba(28, 92, 127, 0.22)"></circle><circle r="5" cx="252.01" cy="405.01" fill="rgba(28, 92, 127, 0.22)"></circle><circle r="5" cx="188.71" cy="505.76" fill="rgba(28, 92, 127, 0.22)"></circle><circle r="5" cx="344.61" cy="391.92" fill="rgba(28, 92, 127, 0.22)"></circle><circle r="5" cx="383.5" cy="526.59" fill="rgba(28, 92, 127, 0.22)"></circle><circle r="5" cx="534.11" cy="218.27" fill="rgba(28, 92, 127, 0.22)"></circle><circle r="5" cx="547.34" cy="401.27" fill="rgba(28, 92, 127, 0.22)"></circle><circle r="5" cx="507.73" cy="541.57" fill="rgba(28, 92, 127, 0.22)"></circle><circle r="5" cx="678.4" cy="219.9" fill="rgba(28, 92, 127, 0.22)"></circle><circle r="5" cx="710.91" cy="339.28" fill="rgba(28, 92, 127, 0.22)"></circle><circle r="5" cx="639.71" cy="538.14" fill="rgba(28, 92, 127, 0.22)"></circle><circle r="5" cx="803.04" cy="93.75" fill="rgba(28, 92, 127, 0.22)"></circle><circle r="5" cx="802.97" cy="198.81" fill="rgba(28, 92, 127, 0.22)"></circle><circle r="5" cx="822.86" cy="374.59" fill="rgba(28, 92, 127, 0.22)"></circle><circle r="5" cx="861.61" cy="513.33" fill="rgba(28, 92, 127, 0.22)"></circle><circle r="5" cx="944.1" cy="-39.73" fill="rgba(28, 92, 127, 0.22)"></circle><circle r="5" cx="948.36" cy="261.25" fill="rgba(28, 92, 127, 0.22)"></circle><circle r="5" cx="955.32" cy="540.4" fill="rgba(28, 92, 127, 0.22)"></circle><circle r="5" cx="1096.83" cy="-98.89" fill="rgba(28, 92, 127, 0.22)"></circle><circle r="5" cx="1117.54" cy="86.33" fill="rgba(28, 92, 127, 0.22)"></circle><circle r="5" cx="1133.75" cy="200.87" fill="rgba(28, 92, 127, 0.22)"></circle><circle r="5" cx="1149.59" cy="400.43" fill="rgba(28, 92, 127, 0.22)"></circle><circle r="5" cx="1159.2" cy="515.3" fill="rgba(28, 92, 127, 0.22)"></circle><circle r="5" cx="1282.52" cy="-44.1" fill="rgba(28, 92, 127, 0.22)"></circle><circle r="5" cx="1256.54" cy="95.27" fill="rgba(28, 92, 127, 0.22)"></circle><circle r="5" cx="1240.96" cy="231.81" fill="rgba(28, 92, 127, 0.22)"></circle><circle r="5" cx="1307.27" cy="365.79" fill="rgba(28, 92, 127, 0.22)"></circle><circle r="5" cx="1283.65" cy="549.39" fill="rgba(28, 92, 127, 0.22)"></circle><circle r="5" cx="1391.88" cy="-77.68" fill="rgba(28, 92, 127, 0.22)"></circle><circle r="5" cx="1453.67" cy="67.97" fill="rgba(28, 92, 127, 0.22)"></circle><circle r="5" cx="1432.65" cy="249.17" fill="rgba(28, 92, 127, 0.22)"></circle><circle r="5" cx="1390.01" cy="350.6" fill="rgba(28, 92, 127, 0.22)"></circle><circle r="5" cx="1431.97" cy="527.39" fill="rgba(28, 92, 127, 0.22)"></circle><circle r="5" cx="1572.06" cy="-104.03" fill="rgba(28, 92, 127, 0.22)"></circle><circle r="5" cx="1558.13" cy="60.61" fill="rgba(28, 92, 127, 0.22)"></circle><circle r="5" cx="1547.73" cy="189.59" fill="rgba(28, 92, 127, 0.22)"></circle><circle r="5" cx="1599.49" cy="406.44" fill="rgba(28, 92, 127, 0.22)"></circle><path d="M253 497.38L253 497.38" stroke="hsla(200.89999999999998, 46.5%, 50.5%, 0.47)" stroke-width="1.5"></path><path d="M253 497.38L339.68 555.69" stroke="hsla(200.89999999999998, 46.5%, 50.5%, 0.47)" stroke-width="1.5"></path><path d="M253 497.38L208.64 372.68" stroke="hsla(200.89999999999998, 46.5%, 50.5%, 0.47)" stroke-width="1.5"></path><path d="M253 497.38L351.65 358.42" stroke="hsla(200.89999999999998, 46.5%, 50.5%, 0.47)" stroke-width="1.5"></path><path d="M253 497.38L105.72 375.82" stroke="hsla(200.89999999999998, 46.5%, 50.5%, 0.47)" stroke-width="1.5"></path><path d="M253 497.38L47.51 504.64" stroke="hsla(200.89999999999998, 46.5%, 50.5%, 0.47)" stroke-width="1.5"></path><path d="M253 497.38L497.36 364.78" stroke="hsla(200.89999999999998, 46.5%, 50.5%, 0.47)" stroke-width="1.5"></path><path d="M701.94 344.24L701.94 344.24" stroke="hsla(200.89999999999998, 46.5%, 50.5%, 0.47)" stroke-width="1.5"></path><path d="M701.94 344.24L801.47 348.12" stroke="hsla(200.89999999999998, 46.5%, 50.5%, 0.47)" stroke-width="1.5"></path><path d="M701.94 344.24L682.08 540.76" stroke="hsla(200.89999999999998, 46.5%, 50.5%, 0.47)" stroke-width="1.5"></path><path d="M701.94 344.24L497.36 364.78" stroke="hsla(200.89999999999998, 46.5%, 50.5%, 0.47)" stroke-width="1.5"></path><path d="M701.94 344.24L827.85 540.06" stroke="hsla(200.89999999999998, 46.5%, 50.5%, 0.47)" stroke-width="1.5"></path><path d="M701.94 344.24L976.1 405.96" stroke="hsla(200.89999999999998, 46.5%, 50.5%, 0.47)" stroke-width="1.5"></path><path d="M701.94 344.24L1001.72 192.98" stroke="hsla(200.89999999999998, 46.5%, 50.5%, 0.47)" stroke-width="1.5"></path><path d="M976.1 405.96L976.1 405.96" stroke="hsla(200.89999999999998, 46.5%, 50.5%, 0.47)" stroke-width="1.5"></path><path d="M976.1 405.96L992.51 513.15" stroke="hsla(200.89999999999998, 46.5%, 50.5%, 0.47)" stroke-width="1.5"></path><path d="M976.1 405.96L1096.63 344.13" stroke="hsla(200.89999999999998, 46.5%, 50.5%, 0.47)" stroke-width="1.5"></path><path d="M976.1 405.96L801.47 348.12" stroke="hsla(200.89999999999998, 46.5%, 50.5%, 0.47)" stroke-width="1.5"></path><path d="M1106.86 559.41L1106.86 559.41" stroke="hsla(200.89999999999998, 46.5%, 50.5%, 0.47)" stroke-width="1.5"></path><path d="M1106.86 559.41L992.51 513.15" stroke="hsla(200.89999999999998, 46.5%, 50.5%, 0.47)" stroke-width="1.5"></path><path d="M1106.86 559.41L1303.87 561.14" stroke="hsla(200.89999999999998, 46.5%, 50.5%, 0.47)" stroke-width="1.5"></path><path d="M1106.86 559.41L976.1 405.96" stroke="hsla(200.89999999999998, 46.5%, 50.5%, 0.47)" stroke-width="1.5"></path><path d="M1106.86 559.41L1096.63 344.13" stroke="hsla(200.89999999999998, 46.5%, 50.5%, 0.47)" stroke-width="1.5"></path><path d="M1106.86 559.41L1311.19 387.55" stroke="hsla(200.89999999999998, 46.5%, 50.5%, 0.47)" stroke-width="1.5"></path><path d="M1106.86 559.41L827.85 540.06" stroke="hsla(200.89999999999998, 46.5%, 50.5%, 0.47)" stroke-width="1.5"></path><path d="M1311.19 387.55L1311.19 387.55" stroke="hsla(200.89999999999998, 46.5%, 50.5%, 0.47)" stroke-width="1.5"></path><path d="M1311.19 387.55L1440.91 355.99" stroke="hsla(200.89999999999998, 46.5%, 50.5%, 0.47)" stroke-width="1.5"></path><path d="M1311.19 387.55L1302.66 223.79" stroke="hsla(200.89999999999998, 46.5%, 50.5%, 0.47)" stroke-width="1.5"></path><path d="M1311.19 387.55L1303.87 561.14" stroke="hsla(200.89999999999998, 46.5%, 50.5%, 0.47)" stroke-width="1.5"></path><path d="M1569.48 403.51L1569.48 403.51" stroke="hsla(200.89999999999998, 46.5%, 50.5%, 0.47)" stroke-width="1.5"></path><path d="M1569.48 403.51L1597.75 530.49" stroke="hsla(200.89999999999998, 46.5%, 50.5%, 0.47)" stroke-width="1.5"></path><path d="M1569.48 403.51L1440.91 355.99" stroke="hsla(200.89999999999998, 46.5%, 50.5%, 0.47)" stroke-width="1.5"></path><path d="M1569.48 403.51L1568.96 231.97" stroke="hsla(200.89999999999998, 46.5%, 50.5%, 0.47)" stroke-width="1.5"></path><path d="M1569.48 403.51L1401.04 545.07" stroke="hsla(200.89999999999998, 46.5%, 50.5%, 0.47)" stroke-width="1.5"></path><path d="M1569.48 403.51L1311.19 387.55" stroke="hsla(200.89999999999998, 46.5%, 50.5%, 0.47)" stroke-width="1.5"></path><path d="M1569.48 403.51L1401.2 204.73" stroke="hsla(200.89999999999998, 46.5%, 50.5%, 0.47)" stroke-width="1.5"></path><path d="M-90.91 354.38L-90.91 354.38" stroke="hsla(200.89999999999998, 46.5%, 50.5%, 0.47)" stroke-width="1.5"></path><path d="M-90.91 354.38L-94.17 531.9" stroke="hsla(200.89999999999998, 46.5%, 50.5%, 0.47)" stroke-width="1.5"></path><path d="M-90.91 354.38L105.72 375.82" stroke="hsla(200.89999999999998, 46.5%, 50.5%, 0.47)" stroke-width="1.5"></path><path d="M-90.91 354.38L47.51 504.64" stroke="hsla(200.89999999999998, 46.5%, 50.5%, 0.47)" stroke-width="1.5"></path><path d="M-94.17 531.9L-94.17 531.9" stroke="hsla(200.89999999999998, 46.5%, 50.5%, 0.47)" stroke-width="1.5"></path><path d="M-94.17 531.9L47.51 504.64" stroke="hsla(200.89999999999998, 46.5%, 50.5%, 0.47)" stroke-width="1.5"></path><path d="M-94.17 531.9L105.72 375.82" stroke="hsla(200.89999999999998, 46.5%, 50.5%, 0.47)" stroke-width="1.5"></path><path d="M-94.17 531.9L208.64 372.68" stroke="hsla(200.89999999999998, 46.5%, 50.5%, 0.47)" stroke-width="1.5"></path><path d="M-94.17 531.9L253 497.38" stroke="hsla(200.89999999999998, 46.5%, 50.5%, 0.47)" stroke-width="1.5"></path><path d="M-94.17 531.9L339.68 555.69" stroke="hsla(200.89999999999998, 46.5%, 50.5%, 0.47)" stroke-width="1.5"></path><path d="M105.72 375.82L105.72 375.82" stroke="hsla(200.89999999999998, 46.5%, 50.5%, 0.47)" stroke-width="1.5"></path><path d="M105.72 375.82L208.64 372.68" stroke="hsla(200.89999999999998, 46.5%, 50.5%, 0.47)" stroke-width="1.5"></path><path d="M105.72 375.82L47.51 504.64" stroke="hsla(200.89999999999998, 46.5%, 50.5%, 0.47)" stroke-width="1.5"></path><path d="M105.72 375.82L351.65 358.42" stroke="hsla(200.89999999999998, 46.5%, 50.5%, 0.47)" stroke-width="1.5"></path><path d="M47.51 504.64L47.51 504.64" stroke="hsla(200.89999999999998, 46.5%, 50.5%, 0.47)" stroke-width="1.5"></path><path d="M208.64 372.68L208.64 372.68" stroke="hsla(200.89999999999998, 46.5%, 50.5%, 0.47)" stroke-width="1.5"></path><path d="M351.65 358.42L351.65 358.42" stroke="hsla(200.89999999999998, 46.5%, 50.5%, 0.47)" stroke-width="1.5"></path><path d="M351.65 358.42L208.64 372.68" stroke="hsla(200.89999999999998, 46.5%, 50.5%, 0.47)" stroke-width="1.5"></path><path d="M351.65 358.42L497.36 364.78" stroke="hsla(200.89999999999998, 46.5%, 50.5%, 0.47)" stroke-width="1.5"></path><path d="M351.65 358.42L339.68 555.69" stroke="hsla(200.89999999999998, 46.5%, 50.5%, 0.47)" stroke-width="1.5"></path><path d="M339.68 555.69L339.68 555.69" stroke="hsla(200.89999999999998, 46.5%, 50.5%, 0.47)" stroke-width="1.5"></path><path d="M339.68 555.69L208.64 372.68" stroke="hsla(200.89999999999998, 46.5%, 50.5%, 0.47)" stroke-width="1.5"></path><path d="M339.68 555.69L497.36 364.78" stroke="hsla(200.89999999999998, 46.5%, 50.5%, 0.47)" stroke-width="1.5"></path><path d="M497.36 364.78L497.36 364.78" stroke="hsla(200.89999999999998, 46.5%, 50.5%, 0.47)" stroke-width="1.5"></path><path d="M497.36 364.78L682.08 540.76" stroke="hsla(200.89999999999998, 46.5%, 50.5%, 0.47)" stroke-width="1.5"></path><path d="M682.08 540.76L682.08 540.76" stroke="hsla(200.89999999999998, 46.5%, 50.5%, 0.47)" stroke-width="1.5"></path><path d="M682.08 540.76L827.85 540.06" stroke="hsla(200.89999999999998, 46.5%, 50.5%, 0.47)" stroke-width="1.5"></path><path d="M682.08 540.76L801.47 348.12" stroke="hsla(200.89999999999998, 46.5%, 50.5%, 0.47)" stroke-width="1.5"></path><path d="M682.08 540.76L992.51 513.15" stroke="hsla(200.89999999999998, 46.5%, 50.5%, 0.47)" stroke-width="1.5"></path><path d="M682.08 540.76L976.1 405.96" stroke="hsla(200.89999999999998, 46.5%, 50.5%, 0.47)" stroke-width="1.5"></path><path d="M801.47 348.12L801.47 348.12" stroke="hsla(200.89999999999998, 46.5%, 50.5%, 0.47)" stroke-width="1.5"></path><path d="M801.47 348.12L827.85 540.06" stroke="hsla(200.89999999999998, 46.5%, 50.5%, 0.47)" stroke-width="1.5"></path><path d="M827.85 540.06L827.85 540.06" stroke="hsla(200.89999999999998, 46.5%, 50.5%, 0.47)" stroke-width="1.5"></path><path d="M827.85 540.06L992.51 513.15" stroke="hsla(200.89999999999998, 46.5%, 50.5%, 0.47)" stroke-width="1.5"></path><path d="M827.85 540.06L976.1 405.96" stroke="hsla(200.89999999999998, 46.5%, 50.5%, 0.47)" stroke-width="1.5"></path><path d="M1001.72 192.98L1001.72 192.98" stroke="hsla(200.89999999999998, 46.5%, 50.5%, 0.47)" stroke-width="1.5"></path><path d="M1001.72 192.98L1126.11 260.53" stroke="hsla(200.89999999999998, 46.5%, 50.5%, 0.47)" stroke-width="1.5"></path><path d="M1001.72 192.98L1121.77 106.89" stroke="hsla(200.89999999999998, 46.5%, 50.5%, 0.47)" stroke-width="1.5"></path><path d="M1001.72 192.98L1096.63 344.13" stroke="hsla(200.89999999999998, 46.5%, 50.5%, 0.47)" stroke-width="1.5"></path><path d="M1001.72 192.98L976.1 405.96" stroke="hsla(200.89999999999998, 46.5%, 50.5%, 0.47)" stroke-width="1.5"></path><path d="M992.51 513.15L992.51 513.15" stroke="hsla(200.89999999999998, 46.5%, 50.5%, 0.47)" stroke-width="1.5"></path><path d="M992.51 513.15L1096.63 344.13" stroke="hsla(200.89999999999998, 46.5%, 50.5%, 0.47)" stroke-width="1.5"></path><path d="M992.51 513.15L801.47 348.12" stroke="hsla(200.89999999999998, 46.5%, 50.5%, 0.47)" stroke-width="1.5"></path><path d="M1121.77 106.89L1121.77 106.89" stroke="hsla(200.89999999999998, 46.5%, 50.5%, 0.47)" stroke-width="1.5"></path><path d="M1121.77 106.89L1126.11 260.53" stroke="hsla(200.89999999999998, 46.5%, 50.5%, 0.47)" stroke-width="1.5"></path><path d="M1121.77 106.89L1274.28 69.62" stroke="hsla(200.89999999999998, 46.5%, 50.5%, 0.47)" stroke-width="1.5"></path><path d="M1126.11 260.53L1126.11 260.53" stroke="hsla(200.89999999999998, 46.5%, 50.5%, 0.47)" stroke-width="1.5"></path><path d="M1126.11 260.53L1096.63 344.13" stroke="hsla(200.89999999999998, 46.5%, 50.5%, 0.47)" stroke-width="1.5"></path><path d="M1126.11 260.53L1302.66 223.79" stroke="hsla(200.89999999999998, 46.5%, 50.5%, 0.47)" stroke-width="1.5"></path><path d="M1096.63 344.13L1096.63 344.13" stroke="hsla(200.89999999999998, 46.5%, 50.5%, 0.47)" stroke-width="1.5"></path><path d="M1262.11 -91.96L1262.11 -91.96" stroke="hsla(200.89999999999998, 46.5%, 50.5%, 0.47)" stroke-width="1.5"></path><path d="M1262.11 -91.96L1412.82 -50.39" stroke="hsla(200.89999999999998, 46.5%, 50.5%, 0.47)" stroke-width="1.5"></path><path d="M1262.11 -91.96L1274.28 69.62" stroke="hsla(200.89999999999998, 46.5%, 50.5%, 0.47)" stroke-width="1.5"></path><path d="M1262.11 -91.96L1121.77 106.89" stroke="hsla(200.89999999999998, 46.5%, 50.5%, 0.47)" stroke-width="1.5"></path><path d="M1262.11 -91.96L1421.76 97.96" stroke="hsla(200.89999999999998, 46.5%, 50.5%, 0.47)" stroke-width="1.5"></path><path d="M1262.11 -91.96L1302.66 223.79" stroke="hsla(200.89999999999998, 46.5%, 50.5%, 0.47)" stroke-width="1.5"></path><path d="M1262.11 -91.96L1588.56 -98.45" stroke="hsla(200.89999999999998, 46.5%, 50.5%, 0.47)" stroke-width="1.5"></path><path d="M1274.28 69.62L1274.28 69.62" stroke="hsla(200.89999999999998, 46.5%, 50.5%, 0.47)" stroke-width="1.5"></path><path d="M1274.28 69.62L1421.76 97.96" stroke="hsla(200.89999999999998, 46.5%, 50.5%, 0.47)" stroke-width="1.5"></path><path d="M1274.28 69.62L1302.66 223.79" stroke="hsla(200.89999999999998, 46.5%, 50.5%, 0.47)" stroke-width="1.5"></path><path d="M1302.66 223.79L1302.66 223.79" stroke="hsla(200.89999999999998, 46.5%, 50.5%, 0.47)" stroke-width="1.5"></path><path d="M1302.66 223.79L1401.2 204.73" stroke="hsla(200.89999999999998, 46.5%, 50.5%, 0.47)" stroke-width="1.5"></path><path d="M1303.87 561.14L1303.87 561.14" stroke="hsla(200.89999999999998, 46.5%, 50.5%, 0.47)" stroke-width="1.5"></path><path d="M1303.87 561.14L1401.04 545.07" stroke="hsla(200.89999999999998, 46.5%, 50.5%, 0.47)" stroke-width="1.5"></path><path d="M1303.87 561.14L1440.91 355.99" stroke="hsla(200.89999999999998, 46.5%, 50.5%, 0.47)" stroke-width="1.5"></path><path d="M1412.82 -50.39L1412.82 -50.39" stroke="hsla(200.89999999999998, 46.5%, 50.5%, 0.47)" stroke-width="1.5"></path><path d="M1412.82 -50.39L1421.76 97.96" stroke="hsla(200.89999999999998, 46.5%, 50.5%, 0.47)" stroke-width="1.5"></path><path d="M1412.82 -50.39L1588.56 -98.45" stroke="hsla(200.89999999999998, 46.5%, 50.5%, 0.47)" stroke-width="1.5"></path><path d="M1412.82 -50.39L1274.28 69.62" stroke="hsla(200.89999999999998, 46.5%, 50.5%, 0.47)" stroke-width="1.5"></path><path d="M1421.76 97.96L1421.76 97.96" stroke="hsla(200.89999999999998, 46.5%, 50.5%, 0.47)" stroke-width="1.5"></path><path d="M1421.76 97.96L1401.2 204.73" stroke="hsla(200.89999999999998, 46.5%, 50.5%, 0.47)" stroke-width="1.5"></path><path d="M1421.76 97.96L1585.83 109.73" stroke="hsla(200.89999999999998, 46.5%, 50.5%, 0.47)" stroke-width="1.5"></path><path d="M1421.76 97.96L1302.66 223.79" stroke="hsla(200.89999999999998, 46.5%, 50.5%, 0.47)" stroke-width="1.5"></path><path d="M1421.76 97.96L1568.96 231.97" stroke="hsla(200.89999999999998, 46.5%, 50.5%, 0.47)" stroke-width="1.5"></path><path d="M1401.2 204.73L1401.2 204.73" stroke="hsla(200.89999999999998, 46.5%, 50.5%, 0.47)" stroke-width="1.5"></path><path d="M1401.2 204.73L1440.91 355.99" stroke="hsla(200.89999999999998, 46.5%, 50.5%, 0.47)" stroke-width="1.5"></path><path d="M1401.2 204.73L1568.96 231.97" stroke="hsla(200.89999999999998, 46.5%, 50.5%, 0.47)" stroke-width="1.5"></path><path d="M1401.2 204.73L1274.28 69.62" stroke="hsla(200.89999999999998, 46.5%, 50.5%, 0.47)" stroke-width="1.5"></path><path d="M1401.2 204.73L1311.19 387.55" stroke="hsla(200.89999999999998, 46.5%, 50.5%, 0.47)" stroke-width="1.5"></path><path d="M1440.91 355.99L1440.91 355.99" stroke="hsla(200.89999999999998, 46.5%, 50.5%, 0.47)" stroke-width="1.5"></path><path d="M1401.04 545.07L1401.04 545.07" stroke="hsla(200.89999999999998, 46.5%, 50.5%, 0.47)" stroke-width="1.5"></path><path d="M1401.04 545.07L1311.19 387.55" stroke="hsla(200.89999999999998, 46.5%, 50.5%, 0.47)" stroke-width="1.5"></path><path d="M1401.04 545.07L1440.91 355.99" stroke="hsla(200.89999999999998, 46.5%, 50.5%, 0.47)" stroke-width="1.5"></path><path d="M1401.04 545.07L1597.75 530.49" stroke="hsla(200.89999999999998, 46.5%, 50.5%, 0.47)" stroke-width="1.5"></path><path d="M1588.56 -98.45L1588.56 -98.45" stroke="hsla(200.89999999999998, 46.5%, 50.5%, 0.47)" stroke-width="1.5"></path><path d="M1588.56 -98.45L1585.83 109.73" stroke="hsla(200.89999999999998, 46.5%, 50.5%, 0.47)" stroke-width="1.5"></path><path d="M1588.56 -98.45L1421.76 97.96" stroke="hsla(200.89999999999998, 46.5%, 50.5%, 0.47)" stroke-width="1.5"></path><path d="M1588.56 -98.45L1568.96 231.97" stroke="hsla(200.89999999999998, 46.5%, 50.5%, 0.47)" stroke-width="1.5"></path><path d="M1588.56 -98.45L1274.28 69.62" stroke="hsla(200.89999999999998, 46.5%, 50.5%, 0.47)" stroke-width="1.5"></path><path d="M1585.83 109.73L1585.83 109.73" stroke="hsla(200.89999999999998, 46.5%, 50.5%, 0.47)" stroke-width="1.5"></path><path d="M1585.83 109.73L1568.96 231.97" stroke="hsla(200.89999999999998, 46.5%, 50.5%, 0.47)" stroke-width="1.5"></path><path d="M1585.83 109.73L1401.2 204.73" stroke="hsla(200.89999999999998, 46.5%, 50.5%, 0.47)" stroke-width="1.5"></path><path d="M1585.83 109.73L1412.82 -50.39" stroke="hsla(200.89999999999998, 46.5%, 50.5%, 0.47)" stroke-width="1.5"></path><path d="M1568.96 231.97L1568.96 231.97" stroke="hsla(200.89999999999998, 46.5%, 50.5%, 0.47)" stroke-width="1.5"></path><path d="M1597.75 530.49L1597.75 530.49" stroke="hsla(200.89999999999998, 46.5%, 50.5%, 0.47)" stroke-width="1.5"></path><path d="M1597.75 530.49L1440.91 355.99" stroke="hsla(200.89999999999998, 46.5%, 50.5%, 0.47)" stroke-width="1.5"></path><path d="M1597.75 530.49L1303.87 561.14" stroke="hsla(200.89999999999998, 46.5%, 50.5%, 0.47)" stroke-width="1.5"></path><circle r="25" cx="253" cy="497.38" fill="url(#SvgjsRadialGradient2134)"></circle><circle r="25" cx="701.94" cy="344.24" fill="url(#SvgjsRadialGradient2134)"></circle><circle r="25" cx="976.1" cy="405.96" fill="url(#SvgjsRadialGradient2134)"></circle><circle r="25" cx="1106.86" cy="559.41" fill="url(#SvgjsRadialGradient2134)"></circle><circle r="25" cx="1311.19" cy="387.55" fill="url(#SvgjsRadialGradient2134)"></circle><circle r="25" cx="1569.48" cy="403.51" fill="url(#SvgjsRadialGradient2134)"></circle><circle r="5" cx="-90.91" cy="354.38" fill="rgba(208, 222, 229, 0.735)"></circle><circle r="5" cx="-94.17" cy="531.9" fill="rgba(208, 222, 229, 0.735)"></circle><circle r="5" cx="105.72" cy="375.82" fill="rgba(208, 222, 229, 0.735)"></circle><circle r="5" cx="47.51" cy="504.64" fill="rgba(208, 222, 229, 0.735)"></circle><circle r="5" cx="208.64" cy="372.68" fill="rgba(208, 222, 229, 0.735)"></circle><circle r="5" cx="351.65" cy="358.42" fill="rgba(208, 222, 229, 0.735)"></circle><circle r="5" cx="339.68" cy="555.69" fill="rgba(208, 222, 229, 0.735)"></circle><circle r="5" cx="497.36" cy="364.78" fill="rgba(208, 222, 229, 0.735)"></circle><circle r="5" cx="682.08" cy="540.76" fill="rgba(208, 222, 229, 0.735)"></circle><circle r="5" cx="801.47" cy="348.12" fill="rgba(208, 222, 229, 0.735)"></circle><circle r="5" cx="827.85" cy="540.06" fill="rgba(208, 222, 229, 0.735)"></circle><circle r="5" cx="1001.72" cy="192.98" fill="rgba(208, 222, 229, 0.735)"></circle><circle r="5" cx="992.51" cy="513.15" fill="rgba(208, 222, 229, 0.735)"></circle><circle r="5" cx="1121.77" cy="106.89" fill="rgba(208, 222, 229, 0.735)"></circle><circle r="5" cx="1126.11" cy="260.53" fill="rgba(208, 222, 229, 0.735)"></circle><circle r="5" cx="1096.63" cy="344.13" fill="rgba(208, 222, 229, 0.735)"></circle><circle r="5" cx="1262.11" cy="-91.96" fill="rgba(208, 222, 229, 0.735)"></circle><circle r="5" cx="1274.28" cy="69.62" fill="rgba(208, 222, 229, 0.735)"></circle><circle r="5" cx="1302.66" cy="223.79" fill="rgba(208, 222, 229, 0.735)"></circle><circle r="5" cx="1303.87" cy="561.14" fill="rgba(208, 222, 229, 0.735)"></circle><circle r="5" cx="1412.82" cy="-50.39" fill="rgba(208, 222, 229, 0.735)"></circle><circle r="5" cx="1421.76" cy="97.96" fill="rgba(208, 222, 229, 0.735)"></circle><circle r="5" cx="1401.2" cy="204.73" fill="rgba(208, 222, 229, 0.735)"></circle><circle r="5" cx="1440.91" cy="355.99" fill="rgba(208, 222, 229, 0.735)"></circle><circle r="5" cx="1401.04" cy="545.07" fill="rgba(208, 222, 229, 0.735)"></circle><circle r="5" cx="1588.56" cy="-98.45" fill="rgba(208, 222, 229, 0.735)"></circle><circle r="5" cx="1585.83" cy="109.73" fill="rgba(208, 222, 229, 0.735)"></circle><circle r="5" cx="1568.96" cy="231.97" fill="rgba(208, 222, 229, 0.735)"></circle><circle r="5" cx="1597.75" cy="530.49" fill="rgba(208, 222, 229, 0.735)"></circle></g><defs><mask id="SvgjsMask2132"><rect width="1440" height="400" fill="#ffffff"></rect></mask><linearGradient x1="81.94%" y1="-65%" x2="18.06%" y2="165%" gradientUnits="userSpaceOnUse" id="SvgjsLinearGradient2133"><stop stop-color="#0e2a47" offset="0"></stop><stop stop-color="rgba(8, 36, 72, 1)" offset="1"></stop></linearGradient><radialGradient id="SvgjsRadialGradient2134"><stop stop-color="#ffffff" offset="0.1"></stop><stop stop-color="rgba(53, 113, 145, 0.47)" offset="0.2"></stop><stop stop-color="rgba(53, 113, 145, 0)" offset="1"></stop></radialGradient></defs></svg>