<svg width="85" height="82" viewBox="0 0 85 82" fill="none" xmlns="http://www.w3.org/2000/svg">
<g filter="url(#filter0_di_1_1249)">
<g clip-path="url(#clip0_1_1249)">
<rect x="12" y="13" width="48" height="48" rx="12" fill="url(#paint0_linear_1_1249)" fill-opacity="0.04" shape-rendering="crispEdges"/>
<g style="mix-blend-mode:plus-lighter" opacity="0.5" clip-path="url(#clip1_1_1249)" filter="url(#filter1_f_1_1249)">
<path d="M44.8989 26.2396L36.0944 33.1108L27.0885 26.2396V26.2415L27.0994 26.2508V35.8723L35.9928 42.8921L44.8989 36.1434V26.2396Z" fill="#EA4335"/>
<path d="M47.211 24.5682L44.8988 26.2396V36.1434L52.1746 30.5573V27.1923C52.1746 27.1923 51.2914 22.3861 47.211 24.5682Z" fill="#FBBC05"/>
<path d="M44.8988 36.1436V48.989H50.4753C50.4753 48.989 52.0621 48.8256 52.1764 47.0168V30.5575L44.8988 36.1436Z" fill="#34A853"/>
<path d="M27.0998 48.9999V35.8722L27.0885 35.8629L27.0998 48.9999Z" fill="#C5221F"/>
<path d="M27.0884 26.2416L24.7889 24.5795C20.7085 22.3974 19.8235 27.2017 19.8235 27.2017V30.5668L27.0884 35.8632V26.2416Z" fill="#C5221F"/>
<path d="M27.0885 26.2414V35.863L27.0998 35.8723V26.2507L27.0885 26.2414Z" fill="#C5221F"/>
<path d="M19.8235 30.5685V47.0278C19.936 48.8384 21.5246 49 21.5246 49H27.1011L27.0884 35.863L19.8235 30.5685Z" fill="#4285F4"/>
</g>
<g filter="url(#filter2_d_1_1249)">
<path d="M44.187 27.0605L36.0868 33.382L27.8014 27.0605V27.0622L27.8114 27.0707V35.9225L35.9934 42.3807L44.187 36.172V27.0605Z" fill="#EA4335"/>
<path d="M46.3141 25.5228L44.1869 27.0604V36.1719L50.8806 31.0327V27.9369C50.8806 27.9369 50.0681 23.5152 46.3141 25.5228Z" fill="#FBBC05"/>
<path d="M44.1869 36.1721V47.9899H49.3173C49.3173 47.9899 50.7772 47.8396 50.8823 46.1755V31.0329L44.1869 36.1721Z" fill="#34A853"/>
<path d="M27.8118 47.9999V35.9224L27.8014 35.9139L27.8118 47.9999Z" fill="#C5221F"/>
<path d="M27.8014 27.0623L25.6858 25.5332C21.9318 23.5257 21.1176 27.9456 21.1176 27.9456V31.0414L27.8014 35.9141V27.0623Z" fill="#C5221F"/>
<path d="M27.8014 27.0621V35.9139L27.8118 35.9225V27.0706L27.8014 27.0621Z" fill="#C5221F"/>
<path d="M21.1176 31.043V46.1856C21.2211 47.8514 22.6826 48 22.6826 48H27.813L27.8014 35.9139L21.1176 31.043Z" fill="#4285F4"/>
</g>
<g filter="url(#filter3_f_1_1249)">
<ellipse cx="36.5" cy="60.5" rx="11.5" ry="6.5" fill="#EB4A3C"/>
</g>
</g>
<rect x="12" y="13" width="48" height="48" rx="12" stroke="url(#paint1_linear_1_1249)" stroke-opacity="0.5" stroke-width="0.8" shape-rendering="crispEdges"/>
</g>
<g style="mix-blend-mode:screen" filter="url(#filter4_f_1_1249)">
<circle cx="29" cy="30" r="9" fill="white" fill-opacity="0.18"/>
</g>
<defs>
<filter id="filter0_di_1_1249" x="-8.39999" y="-7.39999" width="92.8" height="88.8" filterUnits="userSpaceOnUse" color-interpolation-filters="sRGB">
<feFlood flood-opacity="0" result="BackgroundImageFix"/>
<feColorMatrix in="SourceAlpha" type="matrix" values="0 0 0 0 0 0 0 0 0 0 0 0 0 0 0 0 0 0 127 0" result="hardAlpha"/>
<feOffset dx="8" dy="4"/>
<feGaussianBlur stdDeviation="8"/>
<feComposite in2="hardAlpha" operator="out"/>
<feColorMatrix type="matrix" values="0 0 0 0 0 0 0 0 0 0 0 0 0 0 0 0 0 0 0.08 0"/>
<feBlend mode="normal" in2="BackgroundImageFix" result="effect1_dropShadow_1_1249"/>
<feBlend mode="normal" in="SourceGraphic" in2="effect1_dropShadow_1_1249" result="shape"/>
<feColorMatrix in="SourceAlpha" type="matrix" values="0 0 0 0 0 0 0 0 0 0 0 0 0 0 0 0 0 0 127 0" result="hardAlpha"/>
<feOffset/>
<feGaussianBlur stdDeviation="4"/>
<feComposite in2="hardAlpha" operator="arithmetic" k2="-1" k3="1"/>
<feColorMatrix type="matrix" values="0 0 0 0 0.921569 0 0 0 0 0.290196 0 0 0 0 0.235294 0 0 0 0.32 0"/>
<feBlend mode="normal" in2="shape" result="effect2_innerShadow_1_1249"/>
</filter>
<filter id="filter1_f_1_1249" x="4" y="5" width="64" height="64" filterUnits="userSpaceOnUse" color-interpolation-filters="sRGB">
<feFlood flood-opacity="0" result="BackgroundImageFix"/>
<feBlend mode="normal" in="SourceGraphic" in2="BackgroundImageFix" result="shape"/>
<feGaussianBlur stdDeviation="8" result="effect1_foregroundBlur_1_1249"/>
</filter>
<filter id="filter2_d_1_1249" x="18" y="20" width="36" height="36" filterUnits="userSpaceOnUse" color-interpolation-filters="sRGB">
<feFlood flood-opacity="0" result="BackgroundImageFix"/>
<feColorMatrix in="SourceAlpha" type="matrix" values="0 0 0 0 0 0 0 0 0 0 0 0 0 0 0 0 0 0 127 0" result="hardAlpha"/>
<feOffset dy="1"/>
<feGaussianBlur stdDeviation="1"/>
<feComposite in2="hardAlpha" operator="out"/>
<feColorMatrix type="matrix" values="0 0 0 0 0.0627451 0 0 0 0 0.0941176 0 0 0 0 0.156863 0 0 0 0.05 0"/>
<feBlend mode="normal" in2="BackgroundImageFix" result="effect1_dropShadow_1_1249"/>
<feBlend mode="normal" in="SourceGraphic" in2="effect1_dropShadow_1_1249" result="shape"/>
</filter>
<filter id="filter3_f_1_1249" x="7" y="36" width="59" height="49" filterUnits="userSpaceOnUse" color-interpolation-filters="sRGB">
<feFlood flood-opacity="0" result="BackgroundImageFix"/>
<feBlend mode="normal" in="SourceGraphic" in2="BackgroundImageFix" result="shape"/>
<feGaussianBlur stdDeviation="9" result="effect1_foregroundBlur_1_1249"/>
</filter>
<filter id="filter4_f_1_1249" x="0" y="1" width="58" height="58" filterUnits="userSpaceOnUse" color-interpolation-filters="sRGB">
<feFlood flood-opacity="0" result="BackgroundImageFix"/>
<feBlend mode="normal" in="SourceGraphic" in2="BackgroundImageFix" result="shape"/>
<feGaussianBlur stdDeviation="10" result="effect1_foregroundBlur_1_1249"/>
</filter>
<linearGradient id="paint0_linear_1_1249" x1="12" y1="13" x2="60" y2="61" gradientUnits="userSpaceOnUse">
<stop stop-color="#F8FBFF"/>
<stop offset="1" stop-color="white" stop-opacity="0"/>
</linearGradient>
<linearGradient id="paint1_linear_1_1249" x1="13" y1="12" x2="58.5" y2="61" gradientUnits="userSpaceOnUse">
<stop stop-color="#D8D8D8" stop-opacity="0.05"/>
<stop offset="1" stop-color="white" stop-opacity="0.4"/>
</linearGradient>
<clipPath id="clip0_1_1249">
<rect x="12" y="13" width="48" height="48" rx="12" fill="white"/>
</clipPath>
<clipPath id="clip1_1_1249">
<rect width="32" height="32" fill="white" transform="translate(20 21)"/>
</clipPath>
</defs>
</svg>
