<svg width="85" height="82" viewBox="0 0 85 82" fill="none" xmlns="http://www.w3.org/2000/svg">
<g filter="url(#filter0_di_1_159)">
<g clip-path="url(#clip0_1_159)">
<rect x="12" y="13" width="48" height="48" rx="12" fill="url(#paint0_linear_1_159)" fill-opacity="0.04" shape-rendering="crispEdges"/>
<g style="mix-blend-mode:plus-lighter" opacity="0.5" filter="url(#filter1_f_1_159)">
<path d="M38.5594 23.0827L38.5467 29.2432L38.5339 35.4037L37.9458 33.9736V33.9699L37.183 47.6845C37.933 49.5033 38.3336 50.475 38.3379 50.4787C38.3421 50.4824 38.7682 50.5044 39.2839 50.5264C40.8435 50.5924 42.7781 50.7354 44.2483 50.8931C44.5892 50.9298 44.8789 50.9481 44.9002 50.9334C44.9215 50.9188 44.9258 44.6482 44.9215 36.9952L44.9088 23.0827H38.5594Z" fill="url(#paint1_linear_1_159)"/>
<path d="M27.0738 23.0642V36.9915C27.0738 44.6518 27.0823 50.9261 27.0951 50.9371C27.1079 50.9481 27.6576 50.9004 28.3223 50.8381C28.9871 50.7757 29.9033 50.695 30.3592 50.662C31.0581 50.6107 33.1546 50.497 33.3933 50.4934C33.4657 50.4934 33.47 50.1817 33.4785 44.5932L33.4913 38.693L33.9984 39.9251C34.0751 40.1158 34.1006 40.1744 34.1773 40.3614L34.9401 26.6506C34.7782 26.2582 34.8634 26.4635 34.6802 26.0162C34.058 24.5017 33.5296 23.2219 33.5083 23.1632L33.4657 23.0606H27.0738V23.0642Z" fill="url(#paint2_linear_1_159)"/>
<path d="M27.0738 23.0642L33.487 38.7039V38.6965L33.9941 39.9286C36.8109 46.7895 38.3236 50.4712 38.3322 50.4785C38.3364 50.4822 38.7626 50.5042 39.2782 50.5262C40.8378 50.5922 42.7725 50.7352 44.2426 50.8929C44.5792 50.9296 44.8733 50.9479 44.8903 50.9332L38.5324 35.3999V35.4036L37.9444 33.9735C37.3691 32.5764 36.9856 31.6413 34.6717 26.0161C34.0495 24.5017 33.5211 23.2219 33.4998 23.1632L33.4572 23.0606H30.2655L27.0738 23.0642Z" fill="#E30A17"/>
</g>
<path d="M38.5594 23.0827L38.5467 29.2432L38.5339 35.4037L37.9458 33.9736V33.9699L37.183 47.6845C37.933 49.5033 38.3336 50.475 38.3379 50.4787C38.3421 50.4824 38.7682 50.5044 39.2839 50.5264C40.8435 50.5924 42.7781 50.7354 44.2483 50.8931C44.5892 50.9298 44.8789 50.9481 44.9002 50.9334C44.9215 50.9188 44.9258 44.6482 44.9215 36.9952L44.9088 23.0827H38.5594Z" fill="url(#paint3_linear_1_159)"/>
<path d="M27.0738 23.0642V36.9915C27.0738 44.6518 27.0823 50.9261 27.0951 50.9371C27.1079 50.9481 27.6576 50.9004 28.3223 50.8381C28.9871 50.7757 29.9033 50.695 30.3592 50.662C31.0581 50.6107 33.1546 50.497 33.3933 50.4934C33.4657 50.4934 33.47 50.1817 33.4785 44.5932L33.4913 38.693L33.9984 39.9251C34.0751 40.1158 34.1006 40.1744 34.1773 40.3614L34.9401 26.6506C34.7782 26.2582 34.8634 26.4635 34.6802 26.0162C34.058 24.5017 33.5296 23.2219 33.5083 23.1632L33.4657 23.0606H27.0738V23.0642Z" fill="url(#paint4_linear_1_159)"/>
<path d="M27.0738 23.0642L33.487 38.7039V38.6965L33.9941 39.9286C36.8109 46.7895 38.3236 50.4712 38.3322 50.4785C38.3364 50.4822 38.7626 50.5042 39.2782 50.5262C40.8378 50.5922 42.7725 50.7352 44.2426 50.8929C44.5792 50.9296 44.8733 50.9479 44.8903 50.9332L38.5324 35.3999V35.4036L37.9444 33.9735C37.3691 32.5764 36.9856 31.6413 34.6717 26.0161C34.0495 24.5017 33.5211 23.2219 33.4998 23.1632L33.4572 23.0606H30.2655L27.0738 23.0642Z" fill="#E30A17"/>
<g filter="url(#filter2_f_1_159)">
<ellipse cx="36.5" cy="60.5" rx="11.5" ry="6.5" fill="#FC0D1B"/>
</g>
</g>
<rect x="12" y="13" width="48" height="48" rx="12" stroke="url(#paint5_linear_1_159)" stroke-opacity="0.5" stroke-width="0.8" shape-rendering="crispEdges"/>
</g>
<g style="mix-blend-mode:screen" filter="url(#filter3_f_1_159)">
<circle cx="29" cy="30" r="9" fill="white" fill-opacity="0.18"/>
</g>
<defs>
<filter id="filter0_di_1_159" x="-8.39999" y="-7.39999" width="92.8" height="88.8" filterUnits="userSpaceOnUse" color-interpolation-filters="sRGB">
<feFlood flood-opacity="0" result="BackgroundImageFix"/>
<feColorMatrix in="SourceAlpha" type="matrix" values="0 0 0 0 0 0 0 0 0 0 0 0 0 0 0 0 0 0 127 0" result="hardAlpha"/>
<feOffset dx="8" dy="4"/>
<feGaussianBlur stdDeviation="8"/>
<feComposite in2="hardAlpha" operator="out"/>
<feColorMatrix type="matrix" values="0 0 0 0 0 0 0 0 0 0 0 0 0 0 0 0 0 0 0.08 0"/>
<feBlend mode="normal" in2="BackgroundImageFix" result="effect1_dropShadow_1_159"/>
<feBlend mode="normal" in="SourceGraphic" in2="effect1_dropShadow_1_159" result="shape"/>
<feColorMatrix in="SourceAlpha" type="matrix" values="0 0 0 0 0 0 0 0 0 0 0 0 0 0 0 0 0 0 127 0" result="hardAlpha"/>
<feOffset/>
<feGaussianBlur stdDeviation="4"/>
<feComposite in2="hardAlpha" operator="arithmetic" k2="-1" k3="1"/>
<feColorMatrix type="matrix" values="0 0 0 0 0.988235 0 0 0 0 0.0509804 0 0 0 0 0.105882 0 0 0 0.32 0"/>
<feBlend mode="normal" in2="shape" result="effect2_innerShadow_1_159"/>
</filter>
<filter id="filter1_f_1_159" x="8" y="9" width="56" height="56" filterUnits="userSpaceOnUse" color-interpolation-filters="sRGB">
<feFlood flood-opacity="0" result="BackgroundImageFix"/>
<feBlend mode="normal" in="SourceGraphic" in2="BackgroundImageFix" result="shape"/>
<feGaussianBlur stdDeviation="6" result="effect1_foregroundBlur_1_159"/>
</filter>
<filter id="filter2_f_1_159" x="7" y="36" width="59" height="49" filterUnits="userSpaceOnUse" color-interpolation-filters="sRGB">
<feFlood flood-opacity="0" result="BackgroundImageFix"/>
<feBlend mode="normal" in="SourceGraphic" in2="BackgroundImageFix" result="shape"/>
<feGaussianBlur stdDeviation="9" result="effect1_foregroundBlur_1_159"/>
</filter>
<filter id="filter3_f_1_159" x="0" y="1" width="58" height="58" filterUnits="userSpaceOnUse" color-interpolation-filters="sRGB">
<feFlood flood-opacity="0" result="BackgroundImageFix"/>
<feBlend mode="normal" in="SourceGraphic" in2="BackgroundImageFix" result="shape"/>
<feGaussianBlur stdDeviation="10" result="effect1_foregroundBlur_1_159"/>
</filter>
<linearGradient id="paint0_linear_1_159" x1="12" y1="13" x2="60" y2="61" gradientUnits="userSpaceOnUse">
<stop stop-color="#F8FBFF"/>
<stop offset="1" stop-color="white" stop-opacity="0"/>
</linearGradient>
<linearGradient id="paint1_linear_1_159" x1="47.7853" y1="43.9104" x2="37.6229" y2="48.3733" gradientUnits="userSpaceOnUse">
<stop stop-color="#B20610"/>
<stop offset="0.255959" stop-color="#B20610"/>
<stop offset="1" stop-color="#590004"/>
</linearGradient>
<linearGradient id="paint2_linear_1_159" x1="23.9921" y1="29.1712" x2="34.9823" y2="24.4004" gradientUnits="userSpaceOnUse">
<stop stop-color="#B20610"/>
<stop offset="0.255959" stop-color="#B20610"/>
<stop offset="1" stop-color="#590004"/>
</linearGradient>
<linearGradient id="paint3_linear_1_159" x1="47.7853" y1="43.9104" x2="37.6229" y2="48.3733" gradientUnits="userSpaceOnUse">
<stop stop-color="#B20610"/>
<stop offset="0.255959" stop-color="#B20610"/>
<stop offset="1" stop-color="#590004"/>
</linearGradient>
<linearGradient id="paint4_linear_1_159" x1="23.9921" y1="29.1712" x2="34.9823" y2="24.4004" gradientUnits="userSpaceOnUse">
<stop stop-color="#B20610"/>
<stop offset="0.255959" stop-color="#B20610"/>
<stop offset="1" stop-color="#590004"/>
</linearGradient>
<linearGradient id="paint5_linear_1_159" x1="13" y1="12" x2="58.5" y2="61" gradientUnits="userSpaceOnUse">
<stop stop-color="#D8D8D8" stop-opacity="0.05"/>
<stop offset="1" stop-color="white" stop-opacity="0.4"/>
</linearGradient>
<clipPath id="clip0_1_159">
<rect x="12" y="13" width="48" height="48" rx="12" fill="white"/>
</clipPath>
</defs>
</svg>
