<svg width="21" height="21" viewBox="0 0 21 21" fill="none" xmlns="http://www.w3.org/2000/svg">
<path d="M13.5 7.5C12.8597 6.85971 11.9913 6.5 11.0858 6.5H9.5C8.39543 6.5 7.5 7.39543 7.5 8.5C7.5 9.60457 8.39543 10.5 9.5 10.5H11.5C12.6046 10.5 13.5 11.3954 13.5 12.5C13.5 13.6046 12.6046 14.5 11.5 14.5H9.91421C9.00871 14.5 8.14029 14.1403 7.5 13.5M19.5417 11.7009C19.5948 11.307 19.6304 10.9078 19.6304 10.5C19.6304 5.45739 15.5417 1.36957 10.5 1.36957C10.0922 1.36957 9.69303 1.40609 9.29912 1.45739C8.39999 0.853043 7.31652 0.5 6.15217 0.5C3.03043 0.5 0.5 3.03043 0.5 6.15217C0.5 7.31739 0.853055 8.4 1.4574 9.29913C1.40523 9.69304 1.36957 10.0922 1.36957 10.5C1.36957 15.5426 5.45739 19.6304 10.5 19.6304C10.907 19.6304 11.3061 19.5948 11.7 19.5426C12.6 20.147 13.6826 20.5 14.8478 20.5C17.9687 20.5 20.5 17.9696 20.5 14.8478C20.5 13.6826 20.1461 12.6 19.5417 11.7009Z" stroke="#12F3D8" stroke-linejoin="round"/>
</svg>
