<svg width="85" height="82" viewBox="0 0 85 82" fill="none" xmlns="http://www.w3.org/2000/svg">
<g filter="url(#filter0_di_3_187)">
<g clip-path="url(#clip0_3_187)">
<rect x="12" y="13" width="48" height="48" rx="12" fill="url(#paint0_linear_3_187)" fill-opacity="0.04" shape-rendering="crispEdges"/>
<g style="mix-blend-mode:plus-lighter" opacity="0.5" filter="url(#filter1_f_3_187)">
<circle cx="36" cy="37" r="14" fill="#1ED760"/>
<path d="M42.3643 42.623C42.1252 43.0025 41.6149 43.1087 41.2163 42.881C38.075 41.0593 34.1364 40.6494 29.4802 41.6514C29.0338 41.7425 28.5873 41.4844 28.4916 41.0593C28.3959 40.6343 28.667 40.2092 29.1135 40.1181C34.2002 39.0099 38.5693 39.4805 42.0773 41.5299C42.476 41.7576 42.6035 42.2434 42.3643 42.623ZM43.9908 39.1617C43.6878 39.6323 43.05 39.769 42.5557 39.4957C38.9679 37.3856 33.4985 36.7783 29.257 38.008C28.6989 38.1598 28.1249 37.8714 27.9654 37.3552C27.8059 36.8239 28.1089 36.2774 28.667 36.1256C33.5145 34.7289 39.542 35.3969 43.6719 37.8106C44.1343 38.0839 44.2938 38.6911 43.9908 39.1617ZM44.1343 35.5487C39.829 33.1197 32.7332 32.892 28.6192 34.0761C27.9654 34.2735 27.2638 33.9243 27.0565 33.2867C26.8492 32.6643 27.2319 31.9964 27.8857 31.799C32.6056 30.4327 40.4509 30.706 45.394 33.4993C45.984 33.8332 46.1754 34.5619 45.8246 35.1236C45.4897 35.7005 44.7243 35.8978 44.1343 35.5487Z" fill="white"/>
</g>
<circle cx="36" cy="37" r="14" fill="#1ED760"/>
<path d="M42.3643 42.623C42.1252 43.0025 41.6149 43.1087 41.2163 42.881C38.075 41.0593 34.1364 40.6494 29.4802 41.6514C29.0338 41.7425 28.5873 41.4844 28.4916 41.0593C28.3959 40.6343 28.667 40.2092 29.1135 40.1181C34.2002 39.0099 38.5693 39.4805 42.0773 41.5299C42.476 41.7576 42.6035 42.2434 42.3643 42.623ZM43.9908 39.1617C43.6878 39.6323 43.05 39.769 42.5557 39.4957C38.9679 37.3856 33.4985 36.7783 29.257 38.008C28.6989 38.1598 28.1249 37.8714 27.9654 37.3552C27.8059 36.8239 28.1089 36.2774 28.667 36.1256C33.5145 34.7289 39.542 35.3969 43.6719 37.8106C44.1343 38.0839 44.2938 38.6911 43.9908 39.1617ZM44.1343 35.5487C39.829 33.1197 32.7332 32.892 28.6192 34.0761C27.9654 34.2735 27.2638 33.9243 27.0565 33.2867C26.8492 32.6643 27.2319 31.9964 27.8857 31.799C32.6056 30.4327 40.4509 30.706 45.394 33.4993C45.984 33.8332 46.1754 34.5619 45.8246 35.1236C45.4897 35.7005 44.7243 35.8978 44.1343 35.5487Z" fill="white"/>
<g filter="url(#filter2_f_3_187)">
<ellipse cx="36.5" cy="60.5" rx="11.5" ry="6.5" fill="#2BD969"/>
</g>
</g>
<rect x="12" y="13" width="48" height="48" rx="12" stroke="url(#paint1_linear_3_187)" stroke-opacity="0.5" stroke-width="0.8" shape-rendering="crispEdges"/>
</g>
<g style="mix-blend-mode:screen" filter="url(#filter3_f_3_187)">
<circle cx="29" cy="30" r="9" fill="white" fill-opacity="0.18"/>
</g>
<defs>
<filter id="filter0_di_3_187" x="-8.39999" y="-7.39999" width="92.8" height="88.8" filterUnits="userSpaceOnUse" color-interpolation-filters="sRGB">
<feFlood flood-opacity="0" result="BackgroundImageFix"/>
<feColorMatrix in="SourceAlpha" type="matrix" values="0 0 0 0 0 0 0 0 0 0 0 0 0 0 0 0 0 0 127 0" result="hardAlpha"/>
<feOffset dx="8" dy="4"/>
<feGaussianBlur stdDeviation="8"/>
<feComposite in2="hardAlpha" operator="out"/>
<feColorMatrix type="matrix" values="0 0 0 0 0 0 0 0 0 0 0 0 0 0 0 0 0 0 0.08 0"/>
<feBlend mode="normal" in2="BackgroundImageFix" result="effect1_dropShadow_3_187"/>
<feBlend mode="normal" in="SourceGraphic" in2="effect1_dropShadow_3_187" result="shape"/>
<feColorMatrix in="SourceAlpha" type="matrix" values="0 0 0 0 0 0 0 0 0 0 0 0 0 0 0 0 0 0 127 0" result="hardAlpha"/>
<feOffset/>
<feGaussianBlur stdDeviation="4"/>
<feComposite in2="hardAlpha" operator="arithmetic" k2="-1" k3="1"/>
<feColorMatrix type="matrix" values="0 0 0 0 0.168627 0 0 0 0 0.85098 0 0 0 0 0.411765 0 0 0 0.32 0"/>
<feBlend mode="normal" in2="shape" result="effect2_innerShadow_3_187"/>
</filter>
<filter id="filter1_f_3_187" x="8" y="9" width="56" height="56" filterUnits="userSpaceOnUse" color-interpolation-filters="sRGB">
<feFlood flood-opacity="0" result="BackgroundImageFix"/>
<feBlend mode="normal" in="SourceGraphic" in2="BackgroundImageFix" result="shape"/>
<feGaussianBlur stdDeviation="6" result="effect1_foregroundBlur_3_187"/>
</filter>
<filter id="filter2_f_3_187" x="7" y="36" width="59" height="49" filterUnits="userSpaceOnUse" color-interpolation-filters="sRGB">
<feFlood flood-opacity="0" result="BackgroundImageFix"/>
<feBlend mode="normal" in="SourceGraphic" in2="BackgroundImageFix" result="shape"/>
<feGaussianBlur stdDeviation="9" result="effect1_foregroundBlur_3_187"/>
</filter>
<filter id="filter3_f_3_187" x="0" y="1" width="58" height="58" filterUnits="userSpaceOnUse" color-interpolation-filters="sRGB">
<feFlood flood-opacity="0" result="BackgroundImageFix"/>
<feBlend mode="normal" in="SourceGraphic" in2="BackgroundImageFix" result="shape"/>
<feGaussianBlur stdDeviation="10" result="effect1_foregroundBlur_3_187"/>
</filter>
<linearGradient id="paint0_linear_3_187" x1="12" y1="13" x2="60" y2="61" gradientUnits="userSpaceOnUse">
<stop stop-color="#F8FBFF"/>
<stop offset="1" stop-color="white" stop-opacity="0"/>
</linearGradient>
<linearGradient id="paint1_linear_3_187" x1="13" y1="12" x2="58.5" y2="61" gradientUnits="userSpaceOnUse">
<stop stop-color="#D8D8D8" stop-opacity="0.05"/>
<stop offset="1" stop-color="white" stop-opacity="0.4"/>
</linearGradient>
<clipPath id="clip0_3_187">
<rect x="12" y="13" width="48" height="48" rx="12" fill="white"/>
</clipPath>
</defs>
</svg>
