<svg width="85" height="82" viewBox="0 0 85 82" fill="none" xmlns="http://www.w3.org/2000/svg">
<g filter="url(#filter0_di_1_136)">
<g clip-path="url(#clip0_1_136)">
<rect x="12" y="13" width="48" height="48" rx="12" fill="url(#paint0_linear_1_136)" fill-opacity="0.04" shape-rendering="crispEdges"/>
<g style="mix-blend-mode:plus-lighter" opacity="0.5" filter="url(#filter1_f_1_136)">
<path d="M22.2445 30.9411C22.373 28.9623 23.9639 27.4116 25.9445 27.3134C28.8124 27.1714 32.9115 27 36 27C39.0885 27 43.1876 27.1714 46.0555 27.3134C48.0361 27.4116 49.627 28.9623 49.7555 30.9411C49.8786 32.8369 50 35.1697 50 37C50 38.8303 49.8786 41.1631 49.7555 43.0589C49.627 45.0377 48.0361 46.5884 46.0555 46.6866C43.1876 46.8286 39.0885 47 36 47C32.9115 47 28.8124 46.8286 25.9445 46.6866C23.9639 46.5884 22.373 45.0377 22.2445 43.0589C22.1214 41.1631 22 38.8303 22 37C22 35.1697 22.1214 32.8369 22.2445 30.9411Z" fill="#FC0D1B"/>
<path d="M33 33V41L41 37L33 33Z" fill="white"/>
</g>
<path d="M22.2445 30.9411C22.373 28.9623 23.9639 27.4116 25.9445 27.3134C28.8124 27.1714 32.9115 27 36 27C39.0885 27 43.1876 27.1714 46.0555 27.3134C48.0361 27.4116 49.627 28.9623 49.7555 30.9411C49.8786 32.8369 50 35.1697 50 37C50 38.8303 49.8786 41.1631 49.7555 43.0589C49.627 45.0377 48.0361 46.5884 46.0555 46.6866C43.1876 46.8286 39.0885 47 36 47C32.9115 47 28.8124 46.8286 25.9445 46.6866C23.9639 46.5884 22.373 45.0377 22.2445 43.0589C22.1214 41.1631 22 38.8303 22 37C22 35.1697 22.1214 32.8369 22.2445 30.9411Z" fill="#FC0D1B"/>
<path d="M33 33V41L41 37L33 33Z" fill="white"/>
<g filter="url(#filter2_f_1_136)">
<ellipse cx="36.5" cy="60.5" rx="11.5" ry="6.5" fill="#FC0D1B"/>
</g>
</g>
<rect x="12" y="13" width="48" height="48" rx="12" stroke="url(#paint1_linear_1_136)" stroke-opacity="0.5" stroke-width="0.8" shape-rendering="crispEdges"/>
</g>
<g style="mix-blend-mode:screen" filter="url(#filter3_f_1_136)">
<circle cx="29" cy="30" r="9" fill="white" fill-opacity="0.18"/>
</g>
<defs>
<filter id="filter0_di_1_136" x="-8.40002" y="-7.39999" width="92.8" height="88.8" filterUnits="userSpaceOnUse" color-interpolation-filters="sRGB">
<feFlood flood-opacity="0" result="BackgroundImageFix"/>
<feColorMatrix in="SourceAlpha" type="matrix" values="0 0 0 0 0 0 0 0 0 0 0 0 0 0 0 0 0 0 127 0" result="hardAlpha"/>
<feOffset dx="8" dy="4"/>
<feGaussianBlur stdDeviation="8"/>
<feComposite in2="hardAlpha" operator="out"/>
<feColorMatrix type="matrix" values="0 0 0 0 0 0 0 0 0 0 0 0 0 0 0 0 0 0 0.08 0"/>
<feBlend mode="normal" in2="BackgroundImageFix" result="effect1_dropShadow_1_136"/>
<feBlend mode="normal" in="SourceGraphic" in2="effect1_dropShadow_1_136" result="shape"/>
<feColorMatrix in="SourceAlpha" type="matrix" values="0 0 0 0 0 0 0 0 0 0 0 0 0 0 0 0 0 0 127 0" result="hardAlpha"/>
<feOffset/>
<feGaussianBlur stdDeviation="4"/>
<feComposite in2="hardAlpha" operator="arithmetic" k2="-1" k3="1"/>
<feColorMatrix type="matrix" values="0 0 0 0 0.988235 0 0 0 0 0.0509804 0 0 0 0 0.105882 0 0 0 0.32 0"/>
<feBlend mode="normal" in2="shape" result="effect2_innerShadow_1_136"/>
</filter>
<filter id="filter1_f_1_136" x="8" y="9" width="56" height="56" filterUnits="userSpaceOnUse" color-interpolation-filters="sRGB">
<feFlood flood-opacity="0" result="BackgroundImageFix"/>
<feBlend mode="normal" in="SourceGraphic" in2="BackgroundImageFix" result="shape"/>
<feGaussianBlur stdDeviation="6" result="effect1_foregroundBlur_1_136"/>
</filter>
<filter id="filter2_f_1_136" x="7" y="36" width="59" height="49" filterUnits="userSpaceOnUse" color-interpolation-filters="sRGB">
<feFlood flood-opacity="0" result="BackgroundImageFix"/>
<feBlend mode="normal" in="SourceGraphic" in2="BackgroundImageFix" result="shape"/>
<feGaussianBlur stdDeviation="9" result="effect1_foregroundBlur_1_136"/>
</filter>
<filter id="filter3_f_1_136" x="0" y="1" width="58" height="58" filterUnits="userSpaceOnUse" color-interpolation-filters="sRGB">
<feFlood flood-opacity="0" result="BackgroundImageFix"/>
<feBlend mode="normal" in="SourceGraphic" in2="BackgroundImageFix" result="shape"/>
<feGaussianBlur stdDeviation="10" result="effect1_foregroundBlur_1_136"/>
</filter>
<linearGradient id="paint0_linear_1_136" x1="12" y1="13" x2="60" y2="61" gradientUnits="userSpaceOnUse">
<stop stop-color="#F8FBFF"/>
<stop offset="1" stop-color="white" stop-opacity="0"/>
</linearGradient>
<linearGradient id="paint1_linear_1_136" x1="13" y1="12" x2="58.5" y2="61" gradientUnits="userSpaceOnUse">
<stop stop-color="#D8D8D8" stop-opacity="0.05"/>
<stop offset="1" stop-color="white" stop-opacity="0.4"/>
</linearGradient>
<clipPath id="clip0_1_136">
<rect x="12" y="13" width="48" height="48" rx="12" fill="white"/>
</clipPath>
</defs>
</svg>
